<?xml version="1.0" standalone="no"?>
<!DOCTYPE svg PUBLIC "-//W3C//DTD SVG 20010904//EN"
 "http://www.w3.org/TR/2001/REC-SVG-20010904/DTD/svg10.dtd">
<svg version="1.0" xmlns="http://www.w3.org/2000/svg"
 width="618.000000pt" height="618.000000pt" viewBox="0 0 618.000000 618.000000"
 preserveAspectRatio="xMidYMid meet">
<metadata>
Created by potrace 1.14, written by Peter Selinger 2001-2017
</metadata>
<g transform="translate(0.000000,618.000000) scale(0.100000,-0.100000)"
fill="#000000" stroke="none">
<path d="M3900 5274 c-514 -328 -601 -395 -723 -559 -109 -147 -168 -284 -232
-540 l-42 -170 -644 -5 c-725 -6 -678 0 -768 -85 -72 -68 -92 -122 -98 -270
-6 -138 7 -188 52 -205 18 -7 560 -9 1581 -8 l1553 3 23 23 c22 21 23 30 23
165 0 132 -2 146 -26 197 -31 66 -85 121 -148 152 -45 23 -52 23 -492 26
l-447 3 25 95 c13 53 38 122 56 155 42 78 134 192 205 252 32 27 225 156 430
289 205 132 377 248 382 258 25 46 12 76 -112 262 -66 101 -128 188 -137 195
-41 32 -67 18 -461 -233z m450 -54 c33 -49 60 -93 60 -97 -1 -6 -606 -401
-629 -410 -3 -2 -34 42 -68 97 l-61 99 311 200 c172 110 315 200 319 200 4 1
35 -39 68 -89z m-766 -535 c54 -88 55 -90 36 -109 -18 -19 -20 -17 -110 65
l-91 84 41 39 c50 46 44 49 124 -79z m-141 -223 c38 -38 45 -51 35 -59 -10 -8
-41 2 -120 39 -60 28 -108 56 -108 62 0 6 12 28 26 49 l25 38 47 -40 c26 -22
69 -62 95 -89z m-158 -181 l103 -49 -24 -103 c-13 -57 -26 -110 -29 -116 -3
-10 -38 -13 -128 -13 l-124 0 24 103 c20 87 31 126 58 215 6 17 4 17 120 -37z
m1088 -465 c58 -24 72 -49 76 -137 l3 -79 -1441 0 -1441 0 0 68 c0 79 23 125
73 147 47 21 2681 22 2730 1z"/>
<path d="M1705 3305 c-14 -13 -25 -36 -25 -50 0 -14 72 -502 160 -1083 151
-997 162 -1061 190 -1119 35 -71 90 -124 170 -162 l55 -26 755 0 755 0 49 23
c108 49 184 142 206 247 13 66 320 2101 320 2124 0 32 -46 71 -82 71 -45 0
-75 -23 -88 -68 -6 -20 -80 -502 -166 -1071 -85 -569 -161 -1046 -169 -1060
-15 -30 -50 -63 -82 -80 -31 -16 -1455 -16 -1486 0 -33 17 -67 51 -83 82 -8
15 -86 496 -174 1083 -88 580 -165 1064 -170 1074 -25 46 -97 54 -135 15z"/>
<path d="M2765 3305 c-14 -13 -25 -32 -25 -42 0 -10 -16 -250 -35 -533 -42
-626 -42 -604 -10 -635 33 -33 87 -34 120 -1 29 29 27 12 65 601 41 637 41
582 7 611 -38 32 -90 32 -122 -1z"/>
<path d="M3188 3302 c-23 -27 -26 -50 -72 -563 -60 -654 -59 -624 -23 -655 39
-33 81 -31 118 5 16 16 29 38 29 49 0 11 23 266 50 568 28 301 47 556 44 566
-19 62 -105 79 -146 30z"/>
<path d="M2134 2811 c-105 -64 -111 -222 -12 -293 45 -32 153 -33 195 -2 51
38 73 81 73 144 0 66 -24 110 -79 147 -44 30 -132 32 -177 4z"/>
<path d="M3552 2559 c-59 -29 -94 -84 -95 -146 -2 -156 165 -236 285 -135 121
102 40 302 -122 302 -14 0 -44 -10 -68 -21z"/>
<path d="M2325 2286 c-150 -67 -132 -284 26 -326 121 -33 242 89 209 210 -27
102 -141 158 -235 116z"/>
<path d="M3544 2001 c-98 -60 -118 -180 -44 -265 40 -45 79 -59 143 -54 219
18 201 337 -18 338 -32 0 -61 -7 -81 -19z"/>
<path d="M2897 1876 c-124 -45 -156 -199 -61 -288 98 -91 249 -46 285 84 23
87 -37 184 -126 207 -53 13 -51 13 -98 -3z"/>
<path d="M2405 1556 c-101 -44 -135 -176 -69 -263 27 -36 92 -72 129 -73 146
-1 232 172 143 285 -43 56 -138 79 -203 51z"/>
<path d="M3282 1479 c-131 -65 -129 -245 3 -309 101 -49 224 14 242 123 13 82
-25 154 -102 188 -53 24 -91 24 -143 -2z"/>
</g>
</svg>
